<svg xmlns="http://www.w3.org/2000/svg" enable-background="new 0 0 24 24" viewBox="0 0 24 24"><path fill="#FFFFFF" d="M.397 24h4.976v-16.023h-4.976zM2.881 0c-1.59 0-2.881 1.291-2.881 2.882s1.291 2.909 2.881 2.909c1.591 0 2.882-1.318 2.882-2.909s-1.291-2.882-2.882-2.882z"/><path fill="#FFFFFF" d="M2.884 7.977h-2.487v16.023h2.487zM2.881 0c-1.59 0-2.881 1.291-2.881 2.882s1.291 2.909 2.881 2.909h.003v-5.791c-.001 0-.002 0-.003 0z"/><path fill="#FFFFFF" d="m23.994 24 .006-.001v-8.802c0-4.307-.927-7.623-5.961-7.623-2.42 0-4.043 1.328-4.707 2.587h-.069v-2.185h-4.774v16.023h4.97v-7.934c0-2.089.396-4.108 2.983-4.108 2.549 0 2.587 2.384 2.587 4.244v7.799z"/><path fill="#FFFFFF" d="m16.245 7.84c-1.438.451-2.43 1.404-2.913 2.321h-.069v-2.185h-4.774v16.023h4.97v-7.934c0-2.034.376-4.003 2.785-4.104v-4.121z"/></svg>