<svg xmlns="http://www.w3.org/2000/svg" viewBox="0 0 24 24"><path fill="#FFFFFF" d="M19.98 22.359c-.021-.075-.543-1.848-1.015-3.043a.499.499 0 0 0-.753-.225c-.629.444-1.931.396-2.901-.107C14.713 18.674 14 18.078 14 17v-7h3.5a.5.5 0 0 0 .5-.5v-4a.5.5 0 0 0-.5-.5H14V.5a.5.5 0 0 0-.5-.5h-4a.5.5 0 0 0-.5.5C9 4.111 6.736 6 4.5 6a.5.5 0 0 0-.5.5v3a.5.5 0 0 0 .5.5H8v8c0 4.123 3.369 6 6.5 6 2.823 0 5.107-1 5.203-1.043a.5.5 0 0 0 .277-.598z"/><path fill="#FFFFFF" d="M14.5 23C11.851 23 9 21.436 9 18V9.5a.5.5 0 0 0-.5-.5H5V6.975C7.452 6.73 9.793 4.691 9.987 1H13v4.5a.5.5 0 0 0 .5.5H17v3h-3.5a.5.5 0 0 0-.5.5V17c0 1.215.675 2.262 1.851 2.872 1.079.559 2.415.669 3.377.323.258.715.513 1.523.661 2.008-.749.273-2.444.797-4.389.797z"/><path fill="#FFFFFF" d="M14.5 23C11.851 23 9 21.436 9 18V9.5a.5.5 0 0 0-.5-.5H5V6.975C7.452 6.73 9.793 4.691 9.987 1H13v4.5a.5.5 0 0 0 .5.5H17v3h-3.5a.5.5 0 0 0-.5.5V17c0 1.215.675 2.262 1.851 2.872 1.079.559 2.415.669 3.377.323.258.715.513 1.523.661 2.008-.749.273-2.444.797-4.389.797z" opacity=".2"/><path d="M14.5 22C11.851 22 9 20.436 9 17v1c0 3.436 2.851 5 5.5 5 1.945 0 3.64-.524 4.389-.797a58.671 58.671 0 0 0-.284-.901c-.844.283-2.373.698-4.105.698z" opacity=".1"/><path fill="#FFFFFF" d="M5.556 7.531c2.452-.245 4.793-2.284 4.987-5.975H13V1H9.987C9.793 4.691 7.452 6.73 5 6.975V9h.556V7.531z" opacity=".2"/><linearGradient id="a" x1="3.494" x2="22.85" y1="7.473" y2="16.499" gradientUnits="userSpaceOnUse"><stop offset="0" stop-color="#fff" stop-opacity=".2"/><stop offset="1" stop-color="#fff" stop-opacity="0"/></linearGradient><path fill="#FFFFFF" d="M19.98 22.359c-.021-.075-.543-1.848-1.015-3.043a.499.499 0 0 0-.753-.225c-.629.444-1.931.396-2.901-.107C14.713 18.674 14 18.078 14 17v-7h3.5a.5.5 0 0 0 .5-.5v-4a.5.5 0 0 0-.5-.5H14V.5a.5.5 0 0 0-.5-.5h-4a.5.5 0 0 0-.5.5C9 4.111 6.736 6 4.5 6a.5.5 0 0 0-.5.5v3a.5.5 0 0 0 .5.5H8v8c0 4.123 3.369 6 6.5 6 2.823 0 5.107-1 5.203-1.043a.5.5 0 0 0 .277-.598z"/></svg>